<?xml version="1.0" encoding="UTF-8" standalone="no"?>
<!-- Created with Inkscape (http://www.inkscape.org/) -->

<svg
   xmlns:osb="http://www.openswatchbook.org/uri/2009/osb"
   xmlns:dc="http://purl.org/dc/elements/1.1/"
   xmlns:cc="http://creativecommons.org/ns#"
   xmlns:rdf="http://www.w3.org/1999/02/22-rdf-syntax-ns#"
   xmlns:svg="http://www.w3.org/2000/svg"
   xmlns="http://www.w3.org/2000/svg"
   xmlns:xlink="http://www.w3.org/1999/xlink"
   xmlns:sodipodi="http://sodipodi.sourceforge.net/DTD/sodipodi-0.dtd"
   xmlns:inkscape="http://www.inkscape.org/namespaces/inkscape"
   version="1.0"
   width="100"
   height="100"
   id="svg2"
   inkscape:version="0.48.4 r9939"
   sodipodi:docname="view_2D.svg">
  <metadata
     id="metadata3051">
    <rdf:RDF>
      <cc:Work
         rdf:about="">
        <dc:format>image/svg+xml</dc:format>
        <dc:type
           rdf:resource="http://purl.org/dc/dcmitype/StillImage" />
        <dc:title />
      </cc:Work>
    </rdf:RDF>
  </metadata>
  <sodipodi:namedview
     pagecolor="#ffffff"
     bordercolor="#666666"
     borderopacity="1"
     objecttolerance="10"
     gridtolerance="10"
     guidetolerance="10"
     inkscape:pageopacity="0"
     inkscape:pageshadow="2"
     inkscape:window-width="1600"
     inkscape:window-height="844"
     id="namedview3049"
     showgrid="false"
     inkscape:zoom="3.337544"
     inkscape:cx="58.703664"
     inkscape:cy="78.990783"
     inkscape:window-x="0"
     inkscape:window-y="27"
     inkscape:window-maximized="1"
     inkscape:current-layer="svg2" />
  <defs
     id="defs4">
    <linearGradient
       id="linearGradient3840">
      <stop
         style="stop-color:#0000ff;stop-opacity:1;"
         offset="0"
         id="stop3842" />
      <stop
         style="stop-color:#000000;stop-opacity:0;"
         offset="1"
         id="stop3844" />
    </linearGradient>
    <linearGradient
       id="linearGradient5375">
      <stop
         style="stop-color:#787878;stop-opacity:1;"
         offset="0"
         id="stop5377" />
      <stop
         style="stop-color:#646464;stop-opacity:0.70588237;"
         offset="1"
         id="stop5379" />
    </linearGradient>
    <linearGradient
       id="linearGradient3929"
       osb:paint="gradient">
      <stop
         style="stop-color:#b3b2b0;stop-opacity:1;"
         offset="0"
         id="stop3931" />
      <stop
         style="stop-color:#b3b2b0;stop-opacity:0;"
         offset="1"
         id="stop3933" />
    </linearGradient>
    <radialGradient
       inkscape:collect="always"
       xlink:href="#linearGradient5375"
       id="radialGradient3062"
       gradientUnits="userSpaceOnUse"
       gradientTransform="matrix(1.5534344,0,0,0.17371006,-43.312381,87.96843)"
       cx="60.328388"
       cy="19.332626"
       fx="60.328388"
       fy="19.332626"
       r="31.07839" />
    <linearGradient
       inkscape:collect="always"
       xlink:href="#linearGradient3840"
       id="linearGradient3846"
       x1="10.173199"
       y1="51.996822"
       x2="90.141949"
       y2="51.996822"
       gradientUnits="userSpaceOnUse"
       gradientTransform="matrix(1.1889666,0,0,1.1889604,-9.2405328,-11.509884)" />
    <linearGradient
       id="linearGradient3789">
      <stop
         style="stop-color:#00006b;stop-opacity:1;"
         offset="0"
         id="stop3791" />
      <stop
         style="stop-color:#00008f;stop-opacity:0;"
         offset="1"
         id="stop3793" />
    </linearGradient>
    <linearGradient
       y2="50"
       x2="93.770325"
       y1="50"
       x1="6.2296782"
       gradientTransform="matrix(-0.41410823,0.41406786,0.40416663,0.40412723,71.367526,-11.76671)"
       gradientUnits="userSpaceOnUse"
       id="linearGradient3105"
       xlink:href="#linearGradient3789"
       inkscape:collect="always" />
    <radialGradient
       r="42.138134"
       fy="48.853989"
       fx="50.059151"
       cy="48.853989"
       cx="50.059151"
       gradientTransform="matrix(0.81966617,-0.81958626,0.89665926,0.89657185,6.8405708,55.563735)"
       gradientUnits="userSpaceOnUse"
       id="radialGradient3107"
       xlink:href="#linearGradient5375"
       inkscape:collect="always" />
  </defs>
  <g
     id="g3778"
     transform="translate(-0.19328642,1.0829911)">
    <rect
       y="7.2203155"
       x="5.3505397"
       height="83.393387"
       width="89.685493"
       id="rect3794"
       style="opacity:0.41628962;fill:#005a94;fill-opacity:1;stroke:#000000;stroke-width:4;stroke-miterlimit:4;stroke-opacity:1;stroke-dasharray:4.00000023, 8.00000045;stroke-dashoffset:0" />
    <g
       transform="matrix(2.2087267,0,0,2.2444402,-23.789789,-26.650571)"
       id="text3001"
       style="font-size:20.22868538px;font-style:normal;font-weight:normal;line-height:125%;letter-spacing:0px;word-spacing:0px;fill:none;stroke:#ffffff;stroke-width:0.6736995;stroke-miterlimit:4;stroke-opacity:1;stroke-dasharray:none;font-family:Sans">
      <path
         inkscape:connector-curvature="0"
         id="path3006"
         style="fill:none;stroke:#ffffff;stroke-width:1.12283256;stroke-miterlimit:4;stroke-opacity:1;stroke-dasharray:none"
         d="m 18.859408,31.620063 6.963487,0 0,1.679139 -9.363668,0 0,-1.679139 c 0.757256,-0.783596 1.787785,-1.83388 3.091591,-3.150855 1.310381,-1.32355 2.133487,-2.176288 2.469322,-2.558217 0.638723,-0.717742 1.083201,-1.323548 1.333434,-1.817421 0.2568,-0.50044 0.385205,-0.991011 0.385214,-1.471716 -9e-6,-0.783587 -0.276573,-1.422317 -0.829692,-1.916194 -0.546551,-0.493851 -1.261008,-0.740783 -2.143372,-0.740797 -0.625567,1.4e-5 -1.287344,0.108664 -1.985335,0.325951 -0.691413,0.217313 -1.432209,0.546556 -2.222389,0.987729 l 0,-2.014967 c 0.80335,-0.322644 1.554023,-0.566283 2.252021,-0.730919 0.697991,-0.164607 1.336721,-0.246917 1.916194,-0.246932 1.52768,1.5e-5 2.745877,0.381936 3.654596,1.145765 0.908701,0.763857 1.363055,1.784509 1.363066,3.061959 -1.1e-5,0.605817 -0.115246,1.181992 -0.345705,1.728525 -0.223895,0.539967 -0.635449,1.178698 -1.234661,1.916194 -0.16463,0.190968 -0.688126,0.744096 -1.570489,1.659385 -0.882377,0.908715 -2.126914,2.182884 -3.733614,3.82251" />
      <path
         inkscape:connector-curvature="0"
         id="path3008"
         style="fill:none;stroke:#ffffff;stroke-width:1.12283256;stroke-miterlimit:4;stroke-opacity:1;stroke-dasharray:none"
         d="m 31.838163,20.192041 0,11.467531 2.410059,0 c 2.034712,2e-6 3.522889,-0.460938 4.464534,-1.38282 0.948208,-0.921876 1.422317,-2.377129 1.422329,-4.365761 -1.2e-5,-1.975448 -0.474121,-3.420823 -1.422329,-4.33613 -0.941645,-0.921867 -2.429822,-1.382807 -4.464534,-1.38282 l -2.410059,0 m -1.995212,-1.63963 4.099075,0 c 2.857819,1.5e-5 4.955095,0.595944 6.291832,1.787789 1.336713,1.185287 2.005075,3.042215 2.005089,5.570791 -1.4e-5,2.54176 -0.671669,4.408565 -2.014966,5.600422 -1.343322,1.19186 -3.437305,1.787789 -6.281955,1.787789 l -4.099075,0 0,-14.746791" />
    </g>
  </g>
</svg>
